<svg id="Layer_2" data-name="Layer 2" xmlns="http://www.w3.org/2000/svg" viewBox="0 0 164.83 231.37"><defs><style>.cls-1{fill:none;stroke:#f15a35;stroke-miterlimit:10;stroke-width:0.28px;}</style></defs><path class="cls-1" d="M302,414.84l-.51,6.66h-76c0-23-11.51-75.38-11-115.11.4-31.91,8.68-74.87,12.22-91.86A17.07,17.07,0,0,1,243.37,201h19.76c1.82,0,4.18,1.1,6.35,2.41a27.92,27.92,0,0,1,8.2,7.71c2.37,3.34,5.95,7.87,7.94,7.9,3.58,0,11.88-.22,16.8-.4a8.52,8.52,0,0,0,6.29-3.13l15-18.51a17.37,17.37,0,0,1,9.64-6.15,17.06,17.06,0,0,1,13.34,2.51L362.49,204a17.07,17.07,0,0,1,6.17,20.57c-1.76,4.26-3.92,9.92-5.56,14.27a8.39,8.39,0,0,0,.62,7.23l.91,1.56c5.6,9.5,14.06,23.87,14.37,49.23a238.24,238.24,0,0,1-1.59,33,70.93,70.93,0,0,1-12.84,32.33l-.17.24a8.5,8.5,0,0,0-.44,9.29l.75,1.27a17,17,0,0,1-3.63,21.57l-15.47,13.18a17,17,0,0,1-11,4.06c-2.49,0-6.62-2.25-9.87-4.3a18.13,18.13,0,0,0-14.2-2.41,14.19,14.19,0,0,0-1.74.56A10.72,10.72,0,0,0,302,414.84Z" transform="translate(-214.34 -190.27)"/></svg>